<?xml version="1.0" standalone="no"?>
<!DOCTYPE svg PUBLIC "-//W3C//DTD SVG 20010904//EN"
 "http://www.w3.org/TR/2001/REC-SVG-20010904/DTD/svg10.dtd">
<svg version="1.0" xmlns="http://www.w3.org/2000/svg"
 width="1239.000000pt" height="1239.000000pt" viewBox="0 0 1239.000000 1239.000000"
 preserveAspectRatio="xMidYMid meet">
<metadata>
Created by potrace 1.14, written by Peter Selinger 2001-2017
</metadata>
<g transform="translate(0.000000,1239.000000) scale(0.100000,-0.100000)"
fill="#000000" stroke="none">
<path d="M0 6195 l0 -6195 6195 0 6195 0 0 6195 0 6195 -6195 0 -6195 0 0
-6195z m8351 3775 c1429 2 1978 0 1983 -8 3 -6 -55 -129 -130 -274 -75 -145
-171 -330 -214 -413 -272 -525 -501 -967 -590 -1140 -56 -110 -151 -293 -211
-406 -60 -113 -118 -228 -129 -255 -12 -27 -36 -71 -54 -99 -18 -27 -66 -115
-106 -195 -40 -80 -87 -172 -105 -205 -18 -33 -81 -154 -140 -270 -199 -387
-300 -584 -509 -987 -40 -79 -140 -273 -221 -433 -81 -159 -167 -326 -190
-370 -23 -44 -91 -174 -150 -290 -59 -115 -122 -235 -140 -265 -18 -30 -76
-140 -130 -245 -139 -271 -221 -429 -355 -685 -65 -124 -214 -412 -333 -640
-118 -228 -260 -504 -317 -613 -56 -108 -103 -197 -105 -197 -7 0 -64 108
-230 435 -92 182 -171 335 -175 340 -4 6 -69 132 -145 280 -76 149 -166 324
-200 390 -34 66 -117 228 -185 360 -67 132 -139 272 -160 310 -21 39 -106 205
-190 370 -84 165 -165 323 -180 350 -15 28 -89 172 -165 320 -76 149 -150 293
-165 320 -15 28 -100 194 -190 370 -89 176 -170 334 -180 350 -9 17 -77 147
-150 290 -73 143 -170 332 -215 420 -124 241 -245 476 -339 658 -46 89 -166
322 -266 517 -100 195 -210 409 -245 475 -34 66 -118 228 -185 360 -68 132
-155 303 -195 380 -40 77 -119 230 -175 340 -57 110 -120 233 -141 273 -27 51
-35 74 -26 77 26 10 684 12 2447 6 1004 -2 2714 -3 3801 -1z"/>
<path d="M6305 9558 c-880 -4 -1613 -9 -1630 -11 -16 -2 -128 -4 -247 -5 -147
-1 -218 -5 -218 -13 0 -6 52 -108 116 -227 64 -119 136 -254 160 -299 96 -181
141 -266 239 -448 56 -104 142 -264 190 -355 48 -91 138 -259 200 -375 98
-183 266 -496 385 -720 21 -38 58 -108 83 -155 24 -47 98 -184 162 -305 65
-121 136 -254 158 -295 22 -41 57 -106 77 -145 48 -89 716 -1340 870 -1628 64
-121 121 -219 126 -219 5 -1 83 147 174 328 151 301 418 826 625 1229 45 88
160 313 255 500 95 187 219 430 275 540 56 110 182 358 280 550 214 420 263
515 274 529 8 10 57 106 378 736 66 129 184 359 262 512 77 152 141 279 141
282 0 7 -1202 5 -3335 -6z"/>
</g>
</svg>
